HIERARCHY
ROOT reference
{
	OFFSET 0.000000 0.000000 0.000000
	CHANNELS 6 Xposition Yposition Zposition Xrotation Yrotation Zrotation
	JOINT root
	{
		OFFSET 0.000000 89.869698 0.000000
		CHANNELS 3 Xrotation Yrotation Zrotation
		JOINT Hips
		{
			OFFSET 0.000000 0.000000 0.000000
			CHANNELS 3 Xrotation Yrotation Zrotation
			JOINT Spine
			{
				OFFSET 0.013598 -0.105484 -0.026469
				CHANNELS 3 Xrotation Yrotation Zrotation
				JOINT Spine1
				{
					OFFSET -5.027490 17.193398 4.853540
					CHANNELS 3 Xrotation Yrotation Zrotation
					JOINT Spine2
					{
						OFFSET -6.489560 17.043396 3.457121
						CHANNELS 3 Xrotation Yrotation Zrotation
						JOINT Neck
						{
							OFFSET -8.669379 15.586197 5.140711
							CHANNELS 3 Xrotation Yrotation Zrotation
							JOINT Head
							{
								OFFSET -6.523951 8.554855 4.152530
								CHANNELS 3 Xrotation Yrotation Zrotation
								End Site
								{
									OFFSET 0.000000 0.100006 0.000000
								}
							}
						}
						JOINT RightShoulder
						{
							OFFSET -11.633702 14.542206 3.299611
							CHANNELS 3 Xrotation Yrotation Zrotation
							JOINT RightArm
							{
								OFFSET -12.870300 -8.032135 -5.333389
								CHANNELS 3 Xrotation Yrotation Zrotation
								JOINT RightForearm
								{
									OFFSET -25.966301 -13.786201 -0.595376
									CHANNELS 3 Xrotation Yrotation Zrotation
									JOINT RightHand
									{
										OFFSET -20.889801 -1.519997 13.516900
										CHANNELS 3 Xrotation Yrotation Zrotation
										End Site
										{
											OFFSET 0.000000 0.099998 0.000000
										}
									}
								}
							}
						}
						JOINT LeftShoulder
						{
							OFFSET -5.713738 16.618195 6.992710
							CHANNELS 3 Xrotation Yrotation Zrotation
							JOINT LeftArm
							{
								OFFSET 14.245000 3.247299 6.718699
								CHANNELS 3 Xrotation Yrotation Zrotation
								JOINT LeftForearm
								{
									OFFSET 23.957701 -14.592697 -8.817402
									CHANNELS 3 Xrotation Yrotation Zrotation
									JOINT LeftHand
									{
										OFFSET 7.512060 -21.311096 10.526400
										CHANNELS 3 Xrotation Yrotation Zrotation
										End Site
										{
											OFFSET 0.000000 0.099998 0.000000
										}
									}
								}
							}
						}
					}
				}
			}
			JOINT RightUpLeg
			{
				OFFSET -8.373450 -0.383102 -4.593220
				CHANNELS 3 Xrotation Yrotation Zrotation
				JOINT RightLeg
				{
					OFFSET -19.959999 -39.045300 10.211302
					CHANNELS 3 Xrotation Yrotation Zrotation
					JOINT RightFoot
					{
						OFFSET -1.152790 -40.874802 -4.846859
						CHANNELS 3 Xrotation Yrotation Zrotation
						JOINT RightToe
						{
							OFFSET -13.504299 -6.853460 9.736700
							CHANNELS 3 Xrotation Yrotation Zrotation
							End Site
							{
								OFFSET 0.000000 0.100000 0.000000
							}
						}
					}
				}
			}
			JOINT LeftUpLeg
			{
				OFFSET 8.373440 0.383102 4.593220
				CHANNELS 3 Xrotation Yrotation Zrotation
				JOINT LeftLeg
				{
					OFFSET 13.252899 -42.686401 5.424989
					CHANNELS 3 Xrotation Yrotation Zrotation
					JOINT LeftFoot
					{
						OFFSET 12.328602 -37.689201 -11.095201
						CHANNELS 3 Xrotation Yrotation Zrotation
						JOINT LeftToe
						{
							OFFSET -0.239304 -7.519040 16.356800
							CHANNELS 3 Xrotation Yrotation Zrotation
							End Site
							{
								OFFSET 0.000000 0.100000 0.000000
							}
						}
					}
				}
			}
		}
	}
}
MOTION
Frames: 16
Frame Time: 0.041667
0.000000 0.000000 0.000000 -0.000000 0.000000 -0.000000 0.000001 0.000001 -0.000000 -0.000003 -0.000006 -0.000002 -0.000001 0.000003 -0.000005 -0.000001 0.000006 -0.000001 0.000003 0.000006 0.000008 -0.000006 -0.000007 0.000003 -0.000004 0.000003 0.000004 -0.000006 -0.000008 -0.000004 -0.000000 0.000001 0.000001 0.000001 -0.000006 -0.000007 0.000003 -0.000009 -0.000001 -0.000004 -0.000001 -0.000001 0.000006 -0.000008 -0.000007 0.000002 0.000002 0.000002 0.000004 0.000003 -0.000002 -0.000007 0.000006 -0.000000 0.000001 -0.000009 0.000002 0.000001 -0.000006 -0.000002 -0.000002 -0.000008 0.000000 0.000001 -0.000001 -0.000016 -0.000002 -0.000000 0.000002 0.000001 -0.000000 0.000001 -0.000000 0.000000 0.000001 
0.000000 0.000000 0.000000 -0.000000 0.000000 -0.000000 0.000001 0.000001 -0.000000 -0.000003 -0.000006 -0.000002 -0.000001 0.000003 -0.000005 -0.000001 0.000006 -0.000001 0.000003 0.000006 0.000008 -0.000006 -0.000007 0.000003 -0.000004 0.000003 0.000004 -0.000006 -0.000008 -0.000004 -0.000000 0.000001 0.000001 0.000001 -0.000006 -0.000007 0.000003 -0.000009 -0.000001 -0.000004 -0.000001 -0.000001 0.000006 -0.000008 -0.000007 0.000002 0.000002 0.000002 0.000004 0.000003 -0.000002 -0.000007 0.000006 -0.000000 0.000001 -0.000009 0.000002 0.000001 -0.000006 -0.000002 -0.000002 -0.000008 0.000000 0.000001 -0.000001 -0.000016 -0.000002 -0.000000 0.000002 0.000001 -0.000000 0.000001 -0.000000 0.000000 0.000001 
0.000000 0.000000 0.000000 -0.000000 0.000000 -0.000000 0.122170 0.481069 -0.032907 -0.032052 -0.022249 0.060289 0.106837 -0.048470 -0.238672 0.043079 -0.074258 -0.107675 0.035829 -0.046168 -0.073171 0.114990 0.055555 0.152636 0.106765 0.024598 0.359728 0.187165 -0.228470 -0.252108 -1.439553 -1.290118 1.039765 -0.443564 0.871886 -0.591307 0.139885 -0.033979 -1.172251 0.079991 0.008797 -0.151417 -2.683580 0.387696 1.681391 -1.622738 -1.463569 -1.897330 -0.287646 0.623498 -0.648784 -0.310201 -0.432849 -0.345696 0.422621 -0.073568 0.536856 -0.135687 -0.138182 -0.310022 -0.011379 0.007502 -0.183751 -0.542567 -0.549074 -0.183353 0.746368 0.235678 0.027936 -0.336584 -0.162920 -0.029734 -0.000001 0.000000 0.000001 
0.000000 0.000000 0.000000 -0.000000 0.000000 -0.000000 1.580939 3.679370 0.233127 -0.045278 -0.031340 0.085181 -0.059829 -0.526052 -0.942926 -0.355993 -0.811210 -0.567369 -0.173951 -0.570443 -0.394431 0.513356 0.159319 0.463658 0.537693 0.062093 1.156612 1.375074 -1.566009 -1.985760 -6.241986 -5.522162 5.203169 -1.481490 3.002163 -1.996761 0.746702 0.061537 -4.617620 0.493659 -0.185580 -0.767821 -8.616557 1.050908 5.367580 -5.216075 -4.373171 -6.050198 -0.744966 2.232051 -2.149923 -1.519102 -3.475746 -0.582252 0.996598 -0.166947 1.265474 -1.715812 -0.962567 -0.965076 1.419744 -0.044409 -1.427940 0.066131 -3.628689 -0.499735 -3.871936 -1.214762 -0.193926 2.442258 0.775046 -0.212989 -0.000001 0.000000 0.000001 
0.000000 0.000000 0.000000 -0.000000 0.000000 -0.000000 4.546851 9.168210 1.788131 -0.008909 -0.006168 0.016751 -0.946727 -0.511205 -1.650331 -1.888111 -0.989543 -0.991901 -1.191893 -0.802883 -0.698893 0.845514 0.201139 0.168558 1.280368 0.304065 0.930732 3.665629 -3.880455 -5.550038 -22.587041 -14.107921 7.609016 -1.450352 2.936317 -1.954117 -2.926331 -7.464993 -9.574136 1.060769 -0.746089 -1.406430 -13.415027 -0.121678 7.547403 -8.713109 -6.806678 -10.039716 -1.252853 4.539056 -3.781864 -2.853802 -7.289246 -0.781088 -0.127347 0.022968 -0.161853 -3.243938 -2.150725 -0.411017 2.298545 -0.106509 -1.879960 5.043684 -7.525257 -0.875319 -21.441883 -6.410189 -2.066786 12.631304 4.476216 -1.039588 0.011946 0.002596 -0.086762 
0.000000 0.000000 0.000000 -0.000000 0.000000 -0.000000 4.827030 10.255964 4.670272 -0.686843 -0.486982 1.299186 -0.816137 1.643197 -1.729559 -2.348220 1.561342 -0.618265 -1.697234 0.887034 -0.441387 1.201561 0.078354 -0.279449 2.285400 0.092891 0.458259 0.036610 2.100782 -2.804420 -19.122426 -6.228852 4.055169 0.973847 -1.839183 1.280811 -1.869987 -0.941705 -10.728160 1.559897 -0.793151 -2.259075 -17.400086 -2.622128 9.481419 -13.107108 -9.368352 -14.996893 -3.544551 10.212295 -6.304042 -0.458082 -2.882643 -4.286202 -1.180366 0.227147 -1.501310 -6.310880 -2.426855 2.949597 2.099373 -0.099678 -1.671111 3.942354 -6.219277 -4.590142 -21.435825 -6.408523 -2.065867 14.741935 4.994001 -6.900221 -0.265390 -0.036784 1.820260 
0.000000 0.000000 0.000000 -0.000000 0.000000 -0.000000 5.049499 9.623088 5.663842 -1.518004 -1.108325 2.892441 -0.606591 3.198963 -1.836393 -2.355001 3.178027 -0.621417 -1.821297 1.980269 -0.434895 1.562891 -0.223203 -0.329823 2.909680 -0.581544 0.531812 -0.090460 3.145797 -3.766226 -2.222602 10.924887 4.551363 3.080046 -5.496901 3.981342 12.580444 19.671122 -14.110310 1.761826 -0.914958 -2.533184 -19.739872 -3.474468 11.612948 -16.055782 -10.806657 -18.296409 -3.999398 11.408246 -7.312405 0.494209 -0.892238 -6.108242 -1.904389 0.382421 -2.423690 -6.137092 -1.737776 2.697151 1.756970 -0.077300 -1.325349 4.008359 -3.606785 -6.767605 -21.412286 -6.402080 -2.064992 14.983569 4.991498 -10.833376 -0.275108 -0.038086 1.818790 
0.000000 0.000000 0.000000 -0.000000 0.000000 -0.000000 5.260255 11.378320 7.786211 -2.156266 -1.610409 4.133022 -0.000711 5.110258 -1.831713 -2.008181 5.324573 -0.204106 -1.745170 3.456467 -0.126057 1.413780 -1.466320 -0.577751 2.552168 -2.824076 -0.351729 1.305692 2.558253 -6.820352 9.060313 29.918834 5.268932 4.566602 -7.844543 5.840295 26.939096 34.473225 -25.196930 2.038795 -1.450786 -2.664425 -26.776606 -3.706266 15.332644 -23.606853 -13.571997 -26.675181 -4.655376 12.497182 -8.758017 -1.869895 -1.428655 -9.650484 0.800430 -0.135874 1.016513 -4.393804 -0.009142 -3.719241 2.835184 -0.123551 -2.312305 2.853624 -2.359338 -9.029840 -21.386731 -6.395060 -2.064018 15.523724 5.051664 -15.975700 0.013982 0.002318 -0.086465 
0.000000 0.000000 0.000000 -0.000000 0.000000 -0.000000 3.922324 18.780169 10.105264 -0.763018 -0.542418 1.444203 0.269026 3.390180 -1.110950 -1.845191 3.931373 1.447273 -1.534952 2.518074 0.990706 0.459524 -1.750535 -1.193948 1.212727 -3.073314 -2.122495 1.290511 2.483220 -6.690528 0.601369 24.431918 12.311326 1.183120 -2.221548 1.553156 27.682422 31.446427 -26.919737 1.679619 0.169667 -3.110103 -32.128353 -2.630621 17.632567 -30.231940 -15.017163 -33.971619 -5.067662 13.809850 -10.168821 -6.722318 -7.436473 -13.138149 8.983103 -0.701833 11.367243 -7.442893 1.646618 -13.059998 1.777918 -0.067215 -1.410459 -0.165631 -9.519555 -7.461694 -21.374495 -6.391681 -2.062991 17.276163 4.863512 -17.851828 -0.000001 0.000002 -0.000001 
0.000000 0.000000 0.000000 -0.000000 0.000000 -0.000000 3.257778 23.450645 11.630835 -0.082364 -0.057116 0.154994 0.831969 2.499272 -1.163363 -1.155372 3.272124 1.716721 -1.022704 2.117887 1.181894 -0.037463 -2.254857 -0.909847 0.040455 -3.964964 -2.117085 1.741129 2.029237 -7.341542 5.296002 26.605294 10.132368 -0.159894 0.311739 -0.212542 33.557379 31.945283 -30.160066 1.719274 0.593518 -3.462478 -35.554557 -1.115689 20.833983 -33.842484 -15.447711 -37.935950 -4.979078 14.419708 -10.940404 -10.475930 -11.260880 -15.756278 14.279946 -0.277643 18.067490 -8.626755 2.357347 -20.487818 0.840642 -0.030366 -0.658979 -2.367165 -12.601935 -6.591975 -21.354586 -6.391900 -2.061950 18.651840 5.241031 -20.367307 0.000000 -0.000752 -0.000000 
0.000000 0.000000 0.000000 -0.000000 0.000000 -0.000000 3.043739 24.031305 12.061876 -0.076369 -0.053080 0.143715 1.123748 2.579229 -1.295632 -0.784991 3.446605 1.568436 -0.784106 2.262436 1.089028 0.066009 -2.400089 -0.909067 0.183654 -4.281589 -2.080535 1.581366 2.043192 -6.936915 5.861717 25.287385 10.095771 -0.907088 1.807175 -1.214982 34.081534 32.265564 -29.800361 1.652688 0.789082 -3.477433 -35.883662 -0.286278 20.691822 -33.801633 -15.444168 -37.891103 -4.715634 14.276055 -11.075245 -11.597399 -11.623148 -16.739028 15.893954 -0.023426 20.115771 -8.801495 2.596971 -22.913671 0.838190 -0.029609 -0.658181 -2.790216 -12.037216 -6.469932 -21.374495 -6.392429 -2.060946 19.330767 5.566830 -20.744314 0.000002 0.000001 0.000000 
0.000000 0.000000 0.000000 -0.000000 0.000000 -0.000000 2.836724 24.150560 11.618119 -0.064517 -0.044791 0.121392 1.179277 2.214787 -1.245328 -0.595368 2.968154 1.562466 -0.622783 1.951692 1.083345 0.428780 -2.167174 -0.708042 0.730557 -4.002031 -1.441834 1.220188 2.278749 -6.258700 5.569069 22.165036 11.030409 -2.276947 4.726776 -3.097329 34.410274 31.809888 -28.201501 1.359022 1.557382 -3.481926 -33.239266 2.473957 18.612243 -31.656148 -15.216343 -35.536071 -4.100452 12.433698 -10.189722 -12.534886 -13.003441 -16.575216 17.375856 0.262380 22.000719 -8.795502 3.562982 -25.577593 0.716409 -0.024710 -0.562563 -2.601272 -12.808363 -5.131429 -21.347917 -6.393156 -2.060015 19.899271 5.739052 -20.212499 0.074537 0.006713 -0.095367 
0.000000 0.000000 0.000000 -0.000000 0.000000 -0.000000 2.657897 23.019768 10.668423 -0.052802 -0.036695 0.099341 1.132432 1.827520 -1.200569 -0.478316 2.447652 1.433657 -0.507303 1.608569 0.992225 0.272143 -2.384660 -0.387660 0.185843 -4.380505 -1.079641 1.323329 1.795971 -5.954873 5.168200 18.838058 11.313571 -3.756064 8.172264 -5.209053 35.815845 31.063092 -26.541174 1.259619 1.413669 -3.210618 -29.634640 3.892933 16.525694 -29.407458 -14.884220 -33.065444 -2.738029 10.056166 -9.545043 -11.922046 -14.022430 -14.772767 16.832491 0.151709 21.309051 -8.272015 4.332792 -25.705805 0.593624 -0.019965 -0.466166 -1.453577 -13.353274 -3.654167 -21.377850 -6.393918 -2.059182 20.339398 6.127189 -18.238728 -1.210876 -0.091619 1.796522 
0.000000 0.000000 0.000000 -0.000000 0.000000 -0.000000 2.453576 20.401907 9.356287 -0.041282 -0.028659 0.077664 0.988393 1.443805 -1.236061 -0.442927 1.921686 1.100554 -0.445427 1.257922 0.760857 0.418312 -2.385796 -0.209709 0.295890 -4.431326 -0.708057 1.741560 0.887733 -5.988761 4.482291 15.586900 11.493867 -5.052540 11.486736 -7.147656 35.515672 29.673917 -23.878399 1.050083 1.081572 -2.617228 -26.723581 3.827571 15.298635 -27.385468 -14.502431 -30.841156 -2.234199 8.844234 -8.743300 -10.208888 -14.047600 -11.900349 14.877877 -0.190362 18.825886 -7.179476 4.772353 -23.727683 0.473793 -0.015555 -0.372072 0.487242 -13.251212 -1.535216 -21.370499 -6.394600 -2.058504 21.974923 6.943899 -19.103694 -4.642291 -0.314392 2.913513 
0.000000 0.000000 0.000000 -0.000000 0.000000 -0.000000 2.606486 18.729714 7.895468 -0.325026 -0.227523 0.612911 0.891037 1.363262 -1.198220 -0.415239 1.639471 0.935791 -0.406049 1.070314 0.646418 0.551353 -2.340167 -0.123513 0.461890 -4.394688 -0.479749 1.855356 0.529555 -5.866951 4.221421 13.595040 11.288619 -5.544620 12.827980 -7.910237 34.330433 29.093481 -22.044883 0.949904 0.848255 -2.282245 -25.618836 3.537364 14.630579 -25.993965 -14.193168 -29.308543 -2.155558 8.327144 -8.160131 -8.993826 -13.910449 -10.081825 13.384997 -0.393212 16.933586 -6.431085 5.049758 -22.008570 0.287317 -0.003409 -0.347815 1.851815 -13.104900 -0.393796 -21.386770 -6.395054 -2.058026 22.431803 7.196523 -19.301305 -6.113663 -0.396984 2.837607 
0.000000 0.000000 0.000000 -0.000000 0.000000 -0.000000 2.923458 14.695977 4.845767 -0.955246 -0.683699 1.811066 0.629265 1.278068 -1.023740 -0.453528 1.188011 0.705190 -0.398666 0.764096 0.484742 0.738494 -2.092315 0.001201 0.725344 -4.012278 -0.117203 1.936745 0.059304 -5.525368 3.282032 9.314365 10.157996 -5.957423 13.992614 -8.563431 31.284401 26.912871 -18.268625 0.828458 0.380367 -1.750156 -23.070974 2.723257 12.888696 -22.240513 -13.163634 -25.165163 -2.146498 7.470286 -6.894157 -6.373964 -12.785994 -6.559617 9.905737 -0.672705 12.532956 -4.840237 5.423748 -17.477064 0.565263 0.011675 -0.959724 4.625692 -10.293329 0.755526 -21.381883 -6.393722 -2.057763 19.833657 7.073455 -16.845391 -5.119480 -0.296780 2.187688 
